<svg version="1.0" xmlns="http://www.w3.org/2000/svg"
 width="300.000000pt" height="300.000000pt" viewBox="0 0 300.000000 300.000000"
 preserveAspectRatio="xMidYMid meet">

<g transform="translate(0.000000,300.000000) scale(0.100000,-0.100000)"
fill="#000000" stroke="none">
<path d="M1192 1784 c-32 -22 -30 -71 4 -86 50 -23 104 32 72 74 -20 24 -51
30 -76 12z"/>
<path d="M1342 1584 c3 -181 4 -186 27 -205 15 -12 39 -19 68 -19 l45 0 -7 38
c-4 20 -13 41 -21 45 -11 6 -14 41 -14 167 l0 160 -51 0 -50 0 3 -186z m72
-156 c11 -25 -10 -23 -24 1 -11 22 -14 274 -2 285 4 4 9 -55 12 -131 3 -76 9
-146 14 -155z"/>
<path d="M870 1745 c0 -3 -1 -89 -1 -192 l0 -188 50 -3 51 -3 0 73 0 73 62 -3
63 -3 0 45 0 46 -62 0 -63 0 0 35 0 35 76 0 75 0 -3 43 -3 42 -122 3 c-68 1
-123 0 -123 -3z m90 -54 c0 -5 -7 -14 -15 -21 -22 -18 -19 -70 6 -96 l21 -23
-21 -27 c-11 -15 -21 -39 -21 -55 0 -15 -4 -31 -10 -34 -11 -7 -15 247 -3 258
9 10 43 8 43 -2z"/>
<path d="M1660 1659 c-13 -6 -33 -17 -42 -26 -17 -15 -18 -15 -18 5 0 19 -6
22 -45 22 l-45 0 0 -150 0 -150 56 0 55 0 -2 101 c-3 104 4 123 41 116 12 -2
16 -24 18 -110 l3 -107 54 0 54 0 3 101 c3 86 6 104 21 113 15 9 21 7 33 -9
12 -15 15 -42 12 -110 l-2 -90 53 -3 53 -3 -4 123 c-4 137 -13 161 -65 179
-33 11 -93 -6 -108 -31 -5 -8 -13 -6 -29 9 -27 25 -64 33 -96 20z m75 -51 c20
-9 25 -17 20 -32 -4 -12 -9 -48 -11 -80 -6 -77 -14 -85 -14 -15 0 35 -7 69
-20 94 -11 22 -20 41 -20 42 0 6 20 2 45 -9z m167 -15 c9 -19 11 -51 7 -98
l-5 -70 -2 60 c-1 40 -9 71 -22 93 -24 39 -24 42 -5 42 8 0 20 -12 27 -27z
m-314 9 c10 -7 10 -14 -3 -38 -8 -16 -16 -54 -16 -84 -2 -49 -3 -46 -9 25 -9
101 -4 117 28 97z"/>
<path d="M1170 1510 l0 -150 50 0 50 0 0 150 0 150 -50 0 -50 0 0 -150z m60 0
c0 -47 -4 -80 -10 -80 -6 0 -10 33 -10 80 0 47 4 80 10 80 6 0 10 -33 10 -80z"/>
<path d="M2040 1460 c-24 -24 -25 -48 -4 -78 31 -45 104 -19 104 37 0 55 -61
80 -100 41z"/>
<path d="M1910 1188 c0 -62 2 -68 20 -68 17 0 19 5 14 25 -5 22 -3 25 20 25
16 0 26 6 26 15 0 9 -9 15 -25 15 -14 0 -25 5 -25 10 0 6 11 10 24 10 14 0 28
5 32 11 7 13 44 -63 44 -92 0 -10 7 -19 15 -19 8 0 15 9 15 20 0 12 9 38 20
60 24 47 25 60 4 60 -8 0 -20 -15 -26 -32 l-12 -33 -12 30 c-12 29 -15 30 -73
30 l-61 0 0 -67z"/>
<path d="M2130 1258 c0 -2 -2 -33 -5 -70 -3 -62 -2 -68 16 -68 17 0 19 7 19
70 0 56 -3 70 -15 70 -8 0 -15 -1 -15 -2z"/>
</g>
</svg>
